<svg width="512" height="512" viewBox="0 0 512 512" fill="none" xmlns="http://www.w3.org/2000/svg">
  <path fill-rule="evenodd" clip-rule="evenodd" d="M256 0C397.385 0 512 114.615 512 256C512 397.385 397.385 512 256 512C114.615 512 0 397.385 0 256C0 114.615 114.615 0 256 0ZM407.609 318.726C405.904 311.954 403.108 305.504 399.41 299.61C395.665 293.621 391.113 288.135 385.982 283.441L385.82 283.302C381.039 279.04 375.897 275.206 370.54 271.632L370.398 271.539C365.055 267.978 359.558 264.7 353.968 261.607C353.433 261.335 352.891 261.063 352.349 260.784H352.324L337.271 275.837L322.244 290.89C326.578 293.346 330.728 296.134 334.61 299.322C339.709 303.527 344.257 308.419 348.107 313.847C348.983 315.103 349.801 316.407 350.539 317.759C350.812 318.261 351.078 318.762 351.316 319.264C351.613 319.899 351.878 320.566 352.12 321.246C352.324 321.782 352.516 322.332 352.7 322.897C353.075 324.028 353.393 325.172 353.649 326.328C353.765 326.837 353.882 327.339 353.958 327.84C354.27 329.642 354.429 331.461 354.435 333.285V333.301C354.435 336.221 354.029 339.125 353.235 341.923C352.441 344.72 351.27 347.375 349.747 349.791C349.31 350.52 348.856 351.225 348.358 351.915C348.124 352.242 347.883 352.562 347.635 352.875C346.577 354.273 345.399 355.581 344.117 356.783C343.615 357.285 343.113 357.753 342.603 358.222C341.599 359.109 340.545 359.941 339.445 360.714C338.944 361.048 338.442 361.367 337.924 361.668C337.143 362.126 336.332 362.567 335.521 362.939C337.88 363.908 340.318 364.702 342.834 365.271L368.092 340.012C368.092 340.012 393.334 314.77 407.609 300.512V318.726Z" fill="#f8f8f8"/>
  <path fill-rule="evenodd" clip-rule="evenodd" d="M256.008 193.61C252.578 193.61 249.305 194.483 246.464 196.124C243.624 197.766 241.325 200.108 239.835 202.895C238.345 205.681 237.72 208.807 238.025 211.915C238.331 215.023 239.554 217.977 241.559 220.427C243.564 222.877 246.26 224.722 249.305 225.729C252.351 226.736 255.63 226.862 258.743 226.09C261.856 225.318 264.682 223.684 266.863 221.397C269.044 219.11 270.481 216.271 271 213.211H313.654L297.941 228.924C292.8 226.442 287.32 224.703 281.697 223.767C275.783 222.776 269.732 222.776 263.817 223.767C238.476 227.767 225.92 243.825 225.92 243.825L240.964 258.885L256.008 273.922C256.008 273.922 269.017 260.93 284.068 260.93C299.118 260.93 312.11 273.922 312.11 273.922L342.327 243.705L372.536 213.48C372.536 213.48 357.478 183.271 316.655 180.271C302.097 179.188 292.3 180.644 284.068 183.271C276.136 185.83 268.755 189.838 262.349 195.071C260.404 194.087 258.245 193.562 256.008 193.61Z" fill="#f8f8f8"/>
  <path fill-rule="evenodd" clip-rule="evenodd" d="M256.016 318.406C259.446 318.406 262.719 317.533 265.559 315.891C268.4 314.25 270.699 311.908 272.189 309.121C273.679 306.334 274.304 303.209 273.999 300.101C273.693 296.993 272.469 294.039 270.465 291.589C268.46 289.139 265.764 287.294 262.718 286.287C259.673 285.28 256.394 285.153 253.281 285.926C250.168 286.698 247.341 288.331 245.161 290.618C242.98 292.906 241.543 295.745 241.024 298.805H198.369L214.082 283.091C219.224 285.574 224.704 287.312 230.327 288.249C236.241 289.239 242.292 289.239 248.207 288.249C273.548 284.248 286.104 268.19 286.104 268.19L271.06 253.13L256.016 238.093C256.016 238.093 243.007 251.085 227.957 251.085C212.906 251.085 199.914 238.093 199.914 238.093L169.697 268.31L139.488 298.536C139.488 298.536 154.546 328.744 195.369 331.745C209.927 332.827 219.724 331.371 227.957 328.744C235.888 326.185 243.269 322.177 249.675 316.944C251.62 317.929 253.779 318.453 256.016 318.406Z" fill="#f8f8f8"/>
</svg> 