<svg width="700" height="100" xmlns="http://www.w3.org/2000/svg">
  <path d="M55.636 74h11.527V26h-11.527v48zm-34.582 0h11.528V26H21.054v48zM0 74h11.528V26H0v48zm82.033-41.069h16.677V26H70.505v48h28.205v-6.931H82.033V52.945h13.615v-6.85H82.033V32.931zm54.646 35.037C149.306 74 158 68.109 158 56.398v-.162c0-11.365-8.694-17.175-21.078-17.175h-16.757V74h16.514zm-5.149-20.98h4.185c6.199 0 9.586 2.664 9.586 8.573v.162c0 5.909-3.387 8.492-9.586 8.492h-4.185V46.89zm66.335-13.958h-11.528v41.069h-9.505V74h40.295v-6.931h-19.262V32.931zm48.638 41.848c12.663 0 20.745-5.91 20.745-17.598v-.161c0-11.689-8.082-17.68-20.745-17.68-12.664 0-20.746 5.991-20.746 17.68v.161c0 11.689 8.082 17.598 20.746 17.598zm0-7.276c-5.63 0-9.424-2.989-9.424-10.322v-.161c0-7.333 3.793-10.403 9.424-10.403 5.63 0 9.423 3.07 9.423 10.403v.161c0 7.333-3.793 10.322-9.423 10.322zm43.003-34.572h-11.528v41.069h-9.504V74h40.295v-6.931h-19.263V32.931zm46.38 0h-11.528V74h28.205v-6.931h-16.677V32.931zm46.38 0h-11.527V74h11.527V32.931zm26.38-6.931h-11.528v6.931h11.528v41.069h11.526V32.931h11.528V26h-23.054zm64.358 48.779c12.664 0 20.745-5.91 20.745-17.598v-.161c0-11.689-8.081-17.68-20.745-17.68-12.664 0-20.746 5.991-20.746 17.68v.161c0 11.689 8.082 17.598 20.746 17.598zm0-7.276c-5.63 0-9.424-2.989-9.424-10.322v-.161c0-7.333 3.794-10.403 9.424-10.403 5.63 0 9.423 3.07 9.423 10.403v.161c0 7.333-3.793 10.322-9.423 10.322zm34.096-34.572h-11.527V74h11.527V54.705l15.382 19.295h14.184L538.95 51.757 552.323 33h-13.291l-14.023 17.517V32.931z" fill="#f8f8f8" fill-rule="evenodd"/>
</svg> 