<svg width="41" height="41" viewBox="0 0 41 41" fill="none" xmlns="http://www.w3.org/2000/svg">
  <path d="M37.6236 18.79C37.9763 17.5997 38.0735 16.3448 37.9086 15.1144C37.7438 13.8839 37.3202 12.7082 36.6702 11.6729C35.687 10.0633 34.2034 8.83894 32.4538 8.18077C30.7042 7.5226 28.7854 7.46159 27.0004 8.00869C26.1869 7.02678 25.1525 6.23512 23.9796 5.69474C22.8068 5.15436 21.5275 4.8797 20.2326 4.88937C18.302 4.88101 16.4227 5.51977 14.9054 6.70621C13.3881 7.89265 12.3261 9.5602 11.8926 11.44C10.7292 11.7961 9.64683 12.3885 8.71218 13.1804C7.77753 13.9724 7.01036 14.9455 6.45837 16.04C5.47523 17.6498 5.05158 19.5492 5.24934 21.4336C5.44711 23.318 6.25427 25.0788 7.54837 26.44C7.19553 27.6303 7.09831 28.8852 7.26317 30.1157C7.42802 31.3461 7.8517 32.5217 8.50169 33.557C9.48481 35.1662 10.9683 36.3901 12.7175 37.048C14.4667 37.7059 16.3851 37.7669 18.1696 37.22C18.9829 38.2024 20.0172 38.9945 21.1902 39.5351C22.3632 40.0758 23.6428 40.3504 24.9378 40.34C26.8688 40.348 28.7483 39.7087 30.2655 38.5217C31.7826 37.3347 32.8443 35.6667 33.2776 33.7865C34.4409 33.4309 35.5231 32.8391 36.4577 32.0477C37.3922 31.2564 38.1594 30.2839 38.7116 29.19C39.6883 27.5646 40.104 25.6529 39.8971 23.7586C39.6902 21.8643 38.8729 20.0987 37.5666 18.74L37.6236 18.79ZM24.9436 37.79C23.3334 37.7875 21.7722 37.2262 20.5346 36.1999C20.5916 36.1999 20.6316 36.1999 20.6886 36.1499L28.6041 31.7199C28.8142 31.602 28.988 31.431 29.1093 31.2238C29.2305 31.0166 29.2954 30.7803 29.2976 30.5399V19.87L33.0081 21.91C33.0423 21.9265 33.0709 21.9525 33.0904 21.9849C33.11 22.0173 33.1197 22.0546 33.1186 22.0924V30.65C33.1092 32.7813 32.2573 34.8095 30.7615 36.2956C29.2657 37.7817 27.1966 38.6367 24.9436 38.65V37.79ZM10.8316 32.95C10.045 32.1382 9.51248 31.1357 9.29812 30.05C9.35512 30.08 9.42769 30.11 9.49169 30.13L17.4071 34.56C17.617 34.6783 17.8594 34.7407 18.1066 34.74C18.354 34.7402 18.5968 34.6792 18.8071 34.562V34.56L26.4456 30.18V34.28C26.4463 34.3175 26.438 34.3545 26.4215 34.3879C26.405 34.4212 26.3809 34.4497 26.3516 34.47L18.5171 38.85C18.0974 39.089 17.6433 39.2584 17.1719 39.3513C16.7005 39.4442 16.2183 39.4592 15.7427 39.3958C15.2671 39.3323 14.8052 39.1913 14.3775 38.9786C13.9498 38.7659 13.563 38.4847 13.2356 38.1466C12.9083 37.8086 12.6457 37.4185 12.4602 36.993C12.2747 36.5674 12.1693 36.114 12.15 35.6526C12.1306 35.1913 12.1975 34.7309 12.3478 34.2933C12.498 33.8557 12.7294 33.4483 13.0316 33.09L10.8316 32.95ZM7.77363 14.46C8.56197 13.6454 9.59945 13.0836 10.7396 12.86C10.7396 12.92 10.7396 12.9915 10.7396 13.05V21.61C10.7375 21.8501 10.8018 22.0859 10.9224 22.2929C11.043 22.5 11.2162 22.6712 11.4256 22.79L19.0256 27.17L15.3151 29.22C15.2799 29.2402 15.2393 29.2501 15.1981 29.2485C15.1569 29.2469 15.1172 29.2341 15.0836 29.2113L7.24963 24.83C6.4299 24.3469 5.76307 23.6603 5.33202 22.8329C4.90097 22.0056 4.72435 21.0734 4.82387 20.1469C4.92338 19.2204 5.29473 18.342 5.89513 17.613C6.49553 16.884 7.29746 16.3354 8.20112 16.0298C7.12663 18.5798 8.37162 21.6398 11.1401 23.15L11.1971 23.19L7.77363 14.46ZM31.5831 22.13L24.0031 17.75L27.6936 15.69C27.7288 15.6704 27.7694 15.6608 27.8106 15.6623C27.8518 15.6639 27.8915 15.6763 27.9251 15.699L35.7591 20.08C36.3338 20.4085 36.8389 20.8403 37.2473 21.3529C37.6557 21.8654 37.9592 22.4493 38.1418 23.0728C38.3244 23.6964 38.383 24.3485 38.3148 24.9926C38.2465 25.6367 38.0527 26.2615 37.7441 26.83C36.6696 24.28 33.4971 22.72 31.5831 22.13ZM37.3281 18.49L37.2711 18.45L37.3281 18.32C38.2211 17.0208 38.6796 15.4742 38.6421 13.9032C38.6045 12.3323 38.0727 10.8064 37.1245 9.5478C36.1763 8.28922 34.8613 7.3605 33.3595 6.88714C31.8577 6.41377 30.2459 6.41875 28.7471 6.89999C28.7471 6.84299 28.7471 6.77152 28.7471 6.71452V6.5175C30.4743 5.76706 32.3986 5.64275 34.2005 6.16546C36.0024 6.68817 37.573 7.82652 38.6425 9.38979C39.712 10.9531 40.2172 12.8438 40.0702 14.7396C39.9231 16.6355 39.1333 18.4177 37.8361 19.79L37.3281 18.49ZM21.7616 10.49L21.7046 10.54L29.2976 15V23.8L21.7046 19.52L21.7616 19.47C23.0159 18.7449 23.9518 17.6028 24.4 16.2636C24.8482 14.9244 24.7827 13.4729 24.215 12.175C23.6473 10.8771 22.6125 9.81709 21.3029 9.18783C19.9933 8.55856 18.5001 8.40734 17.0821 8.76C18.1071 8.23686 19.2573 7.99157 20.4136 8.05165C21.5699 8.11173 22.6892 8.47509 23.6652 9.10439C24.6412 9.73369 25.4429 10.6081 26.0011 11.6421C26.5594 12.6761 26.8559 13.8346 26.8601 15.0125C26.8643 16.1904 26.5762 17.3511 26.0254 18.3894C25.4746 19.4276 24.6792 20.3079 23.7077 20.944C22.7362 21.5801 21.62 21.9511 20.4651 22.0191C19.3101 22.0871 18.1594 21.85 17.1316 21.335L21.7616 10.49ZM8.40112 8.18C9.43981 7.12077 10.7547 6.35095 12.2007 5.94C13.6468 5.52906 15.1714 5.49152 16.6347 5.83069C18.098 6.16987 19.445 6.87515 20.538 7.88C21.631 8.88485 22.4301 10.1526 22.8491 11.55C22.2809 10.4347 21.4314 9.48346 20.3843 8.77878C19.3372 8.0741 18.1297 7.63864 16.8774 7.51343C15.6251 7.38822 14.363 7.57669 13.2102 8.06161C12.0575 8.54653 11.0517 9.31242 10.2946 10.2925C10.1476 10.4824 10.0158 10.6839 9.90012 10.895V10.84L9.84312 10.79L12.6886 4.31C13.9508 4.08935 15.2519 4.17062 16.4755 4.54696C17.699 4.92331 18.8101 5.58334 19.7171 6.47037C20.624 7.3574 21.2989 8.44761 21.6828 9.65015C22.0668 10.8527 22.1487 12.1325 21.9216 13.3745C21.6944 14.6165 21.1647 15.7851 20.3776 16.7698C19.5905 17.7545 18.5703 18.5264 17.4033 19.0152C16.2363 19.504 14.9604 19.6948 13.7024 19.5701C12.4444 19.4453 11.2422 19.0084 10.2031 18.2999L9.42762 17.7199V17.5999L8.32963 17.09L7.61163 16.66V16.61C7.57563 14.2675 8.57763 11.7605 10.2811 10.085L8.41712 8.18H8.40112ZM15.2811 8.22L13.4456 13.08L13.3886 13.03C12.1432 12.3042 11.269 11.047 11.0001 9.61999C12.3074 8.70389 13.8903 8.20767 15.5081 8.21L15.2811 8.22ZM18.0136 32.27V23.57L25.6076 19.27L28.0831 20.62L18.0136 32.27Z" fill="#f8f8f8"/>
</svg> 